<svg id="_Layer_" data-name=" Layer " xmlns="http://www.w3.org/2000/svg" viewBox="0 0 9.40163 14"><defs><style>.cls-1{fill:#5a6872;}</style></defs><title>applications_16</title><path class="cls-1" d="M13.70082,9.33855l-.89918-.89919a5.46508,5.46508,0,0,1-1.50628,1.18619l-1.232-3.69664a1.89726,1.89726,0,0,0-.67327-3.17546V2H8.11736v.75345a1.89727,1.89727,0,0,0-.67327,3.17546L4.29918,15.36364,5.57191,16l1.55528-4.66581a6.5302,6.5302,0,0,0,1.62654.21126,6.62915,6.62915,0,0,0,1.62718-.20936L11.93555,16l1.27273-.63636-1.50564-4.51755A6.75313,6.75313,0,0,0,13.70082,9.33855ZM8.75373,3.90909a.63637.63637,0,1,1-.63637.63636.63636.63636,0,0,1,.63637-.63636Zm0,6.36364a5.27182,5.27182,0,0,1-1.22309-.14955L8.75373,6.45455l1.225,3.675A5.40105,5.40105,0,0,1,8.75373,10.27273Z" transform="translate(-4.29918 -2)"/></svg>