<?xml version="1.0" encoding="utf-8"?>
<!-- Generator: Adobe Illustrator 21.1.0, SVG Export Plug-In . SVG Version: 6.00 Build 0)  -->
<svg version="1.1" id="_Layer_" xmlns="http://www.w3.org/2000/svg" xmlns:xlink="http://www.w3.org/1999/xlink" x="0px" y="0px"
	 viewBox="0 0 14 16" style="enable-background:new 0 0 14 16;" xml:space="preserve">
<style type="text/css">
	.st0{fill:#5A6873;}
</style>
<title>provider_orgs_18</title>
<g>
	<path id="_Compound_Path_" class="st0" d="M3.6,11.4c1.4,0,2.5-1.1,2.5-2.5c0,0,0,0,0-0.1c0-1.4-1.2-2.6-2.6-2.6
		C2.1,6.3,1,7.4,1,8.8c0,0,0,0,0,0.1C1,10.3,2.2,11.4,3.6,11.4z M3.5,7.1c1,0,1.7,0.8,1.7,1.7c0,0.9-0.7,1.7-1.6,1.7c0,0,0,0,0,0
		c-1,0-1.7-0.8-1.7-1.7C1.8,7.9,2.6,7.1,3.5,7.1C3.5,7.1,3.5,7.1,3.5,7.1L3.5,7.1z"/>
	<path id="_Path_" class="st0" d="M5.3,12.3H1.9c-0.5,0-0.9,0.4-0.9,0.9v1.7h5.1v-1.7C6.1,12.7,5.8,12.3,5.3,12.3z"/>
	<path id="_Path_2" class="st0" d="M12.1,12.3H8.7c-0.5,0-0.9,0.4-0.9,0.9v1.7H13v-1.7C13,12.7,12.6,12.3,12.1,12.3z"/>
	<path id="_Compound_Path_2" class="st0" d="M7.9,8.9c0,1.4,1.2,2.6,2.6,2.6c1.4,0,2.5-1.1,2.5-2.5c0,0,0,0,0-0.1
		c0-1.4-1.2-2.6-2.6-2.6C9,6.3,7.9,7.4,7.9,8.9C7.9,8.8,7.9,8.8,7.9,8.9z M10.4,7.1c1,0,1.7,0.8,1.7,1.7c0,0.9-0.7,1.7-1.6,1.7
		c0,0,0,0,0,0c-1,0-1.7-0.8-1.7-1.7C8.7,7.9,9.4,7.1,10.4,7.1C10.4,7.1,10.4,7.1,10.4,7.1z"/>
	<path id="_Compound_Path_3" class="st0" d="M9.6,3.7c0-1.4-1.2-2.6-2.6-2.6c-1.4,0-2.5,1.1-2.5,2.5c0,0,0,0,0,0.1
		c0,1.4,1.2,2.6,2.6,2.6C8.4,6.3,9.6,5.2,9.6,3.7C9.6,3.8,9.6,3.7,9.6,3.7z M7,5.4c-1,0-1.7-0.8-1.7-1.7C5.3,2.8,6,2,6.9,2
		c0,0,0,0,0,0c1,0,1.7,0.8,1.7,1.7C8.7,4.6,8,5.4,7,5.4C7,5.4,7,5.4,7,5.4z"/>
</g>
</svg>
