<svg id="APIs" xmlns="http://www.w3.org/2000/svg" viewBox="0 0 120 120"><defs><style>.cls-1{fill:#ff3ca0;}.cls-2{fill:#fff;}</style></defs><title>gears</title><g id="_10" data-name="10"><circle class="cls-1" cx="60" cy="60" r="60"/><path fill="#fff" class="cls-2" d="M64.61,66.93a18.68,18.68,0,0,0,2.55-2.55l3,.95a21.51,21.51,0,0,0,2.36-4.07L70.19,59.1a18.42,18.42,0,0,0,.93-3.46l3.13-.7a20.76,20.76,0,0,0,0-4.7l-3.13-.7a18.4,18.4,0,0,0-.93-3.46l2.36-2.17a21.51,21.51,0,0,0-2.36-4.07l-3,.95a18.67,18.67,0,0,0-2.55-2.55l.95-3a21.51,21.51,0,0,0-4.07-2.36L59.32,35.2a18.41,18.41,0,0,0-3.46-.93l-.7-3.13a20.77,20.77,0,0,0-4.7,0l-.7,3.13a18.41,18.41,0,0,0-3.46.93l-2.17-2.36a21.51,21.51,0,0,0-4.07,2.36l.95,3a18.67,18.67,0,0,0-2.55,2.55l-3-.95a21.51,21.51,0,0,0-2.36,4.06l2.36,2.17a18.4,18.4,0,0,0-.93,3.46l-3.13.7a20.76,20.76,0,0,0,0,4.7l3.13.7a18.41,18.41,0,0,0,.93,3.46l-2.36,2.17a21.52,21.52,0,0,0,2.36,4.07l3-.95A18.68,18.68,0,0,0,41,66.93l-.95,3a21.51,21.51,0,0,0,4.07,2.36L46.29,70a18.41,18.41,0,0,0,3.46.93l.7,3.13a20.77,20.77,0,0,0,4.7,0l.7-3.13A18.42,18.42,0,0,0,59.32,70l2.17,2.36A21.51,21.51,0,0,0,65.55,70ZM52.8,63.5A10.92,10.92,0,1,1,63.72,52.58,10.92,10.92,0,0,1,52.8,63.5ZM89,76.91,90.77,76a12.87,12.87,0,0,0-.68-2.83l-2,0a11.4,11.4,0,0,0-1.06-2l1.1-1.65a13.33,13.33,0,0,0-2-2.1l-1.68,1a11.57,11.57,0,0,0-1.91-1.16l.13-2a13.33,13.33,0,0,0-2.79-.83l-1,1.73a11.41,11.41,0,0,0-2.22-.05l-.88-1.78a12.87,12.87,0,0,0-2.83.68l0,2a11.41,11.41,0,0,0-2,1.06l-1.65-1.1a13.33,13.33,0,0,0-2.1,2l1,1.68a11.57,11.57,0,0,0-1.16,1.91l-2-.13a13.34,13.34,0,0,0-.83,2.79l1.73,1A11.4,11.4,0,0,0,66,78.56l-1.78.88a12.87,12.87,0,0,0,.68,2.83l2,0a11.41,11.41,0,0,0,1.06,2l-1.1,1.65a13.33,13.33,0,0,0,2,2.1l1.68-1a11.57,11.57,0,0,0,1.91,1.16l-.13,2a13.33,13.33,0,0,0,2.79.83l1-1.73a11.4,11.4,0,0,0,2.22.05L79.22,91a12.88,12.88,0,0,0,2.83-.68l0-2a11.41,11.41,0,0,0,2-1.06l1.65,1.1a13.33,13.33,0,0,0,2.1-2l-1-1.68a11.57,11.57,0,0,0,1.16-1.91l2,.13a13.33,13.33,0,0,0,.83-2.79l-1.73-1A11.41,11.41,0,0,0,89,76.91ZM79.1,84.31a6.77,6.77,0,1,1,5-8.17A6.77,6.77,0,0,1,79.1,84.31Z" transform="translate(-1 -1)"/></g></svg>