
<svg width="32px" height="48px" viewBox="0 0 32 48" version="1.1" xmlns="http://www.w3.org/2000/svg" xmlns:xlink="http://www.w3.org/1999/xlink">
    <defs></defs>
    <g id="members-placeholder" stroke="none" stroke-width="1" fill="none" fill-rule="evenodd">
        <g id="members---placeholder-user" transform="translate(-704.000000, -500.000000)" fill="#5A6872">
            <g id="Group" transform="translate(70.000000, 351.000000)">
                <g id="list">
                    <g id="zero-data" transform="translate(547.000000, 149.000000)">
                        <g id="icon" transform="translate(87.000000, 0.000000)">
                            <path d="M30.4,46.4 L1.6,46.4 L1.6,8 L12.8,8 L12.8,12.8 L19.2,12.8 L19.2,8 L30.4,8 L30.4,46.4 Z M16,1.6 C16.8832,1.6 17.6,2.3168 17.6,3.2 C17.6,4.0832 16.8832,4.8 16,4.8 C15.1168,4.8 14.4,4.0832 14.4,3.2 C14.4,2.3168 15.1168,1.6 16,1.6 L16,1.6 Z M19.2,6.4 L19.2,0 L12.8,0 L12.8,6.4 L0,6.4 L0,48 L32,48 L32,6.4 L19.2,6.4 Z" id="Fill-1"></path>
                            <path d="M16,30.4 C12.4712,30.4 9.6,27.5288 9.6,24 C9.6,20.4712 12.4712,17.6 16,17.6 C19.5288,17.6 22.4,20.4712 22.4,24 C22.4,27.5288 19.5288,30.4 16,30.4 M16,16 C11.5816,16 8,19.5816 8,24 C8,28.4184 11.5816,32 16,32 C20.4184,32 24,28.4184 24,24 C24,19.5816 20.4184,16 16,16" id="Fill-3"></path>
                            <path d="M9.6,35.2 C7.8328,35.2 6.4,36.6328 6.4,38.4 L6.4,41.6 L25.6,41.6 L25.6,38.4 C25.6,36.6328 24.1672,35.2 22.4,35.2 L9.6,35.2 Z" id="Fill-5"></path>
                        </g>
                    </g>
                </g>
            </g>
        </g>
    </g>
</svg>
