<?xml version="1.0" encoding="UTF-8"?>
<svg viewBox="0 0 151 150" version="1.1" xmlns="http://www.w3.org/2000/svg" xmlns:xlink="http://www.w3.org/1999/xlink">
    <title>API</title>
    <g stroke="none" stroke-width="1" fill="none" fill-rule="evenodd">
        <g transform="translate(-147.000000, -476.000000)">
            <g transform="translate(147.000000, 476.000000)">
                <ellipse fill="#EAF0F8" cx="75.3724976" cy="74.9560749" rx="75.3724976" ry="74.9560749"></ellipse>
                <g transform="translate(44.000000, 47.000000)">
                    <rect id="Rectangle-path" fill="#3D70B2" x="43.5933898" y="11.7967174" width="2.68386626" height="2.50010896"></rect>
                    <rect id="Rectangle" stroke="#5AAAFA" stroke-width="3" x="2.10740118" y="0" width="58.7572023" height="42.5770753" rx="3"></rect>
                    <path d="M26.3130579,26.182761 C26.0623283,26.182761 25.892821,26.1133135 25.8068902,25.9744186 C25.7197822,25.8355236 25.6774054,25.6040321 25.6774054,25.2799439 L25.6774054,19.1222681 C25.6774054,18.4902961 25.5361493,17.9532357 25.253637,17.5134017 C24.9711248,17.0735677 24.5979732,16.7135983 24.1353594,16.4369659 C23.6727456,16.159176 23.150098,15.9589358 22.5697708,15.8350878 C21.9882664,15.7112398 21.3996993,15.6498946 20.8040693,15.6498946 C20.1283942,15.6498946 19.469199,15.7123973 18.8264836,15.8350878 C18.1825912,15.9589358 17.6057953,16.174223 17.0960962,16.4832642 C16.586397,16.7923055 16.1661601,17.2008881 15.8365624,17.7101695 C15.5069648,18.219451 15.3186233,18.8595252 15.271538,19.6315496 L17.9554042,19.6315496 C18.0177923,18.9833732 18.2932418,18.5053431 18.7793983,18.1963018 C19.2655547,17.8872606 19.8859045,17.7333187 20.6392705,17.7333187 C20.90648,17.7333187 21.1878151,17.7529955 21.4868072,17.7911916 C21.7846222,17.8305451 22.0553631,17.9069374 22.300207,18.0226832 C22.5426967,18.1384289 22.7475181,18.3039454 22.9123169,18.52039 C23.0771157,18.7368346 23.1595151,19.0146245 23.1595151,19.3537597 C23.1595151,19.7391931 23.0618129,20.0285576 22.8652315,20.2218531 C22.6686501,20.4151485 22.4014406,20.5575158 22.0647802,20.6501125 C21.7269426,20.7427091 21.3384883,20.8086842 20.8994172,20.8468803 C20.4603461,20.8850764 19.9965551,20.9510515 19.5103987,21.0436481 C18.9453742,21.1049934 18.3838811,21.1941177 17.8270966,21.3098634 C17.2703121,21.4256092 16.7676757,21.6142749 16.3203647,21.8770178 C15.8730536,22.1397607 15.5116734,22.502045 15.2374011,22.9650282 C14.9619516,23.4280113 14.8254041,24.0298894 14.8254041,24.7706624 C14.8254041,25.3574936 14.938409,25.8702474 15.166773,26.3100814 C15.3939599,26.7499153 15.7000149,27.1121997 16.0849378,27.3980917 C16.4698607,27.6839838 16.9124632,27.9004285 17.4150996,28.0462681 C17.9177359,28.1932653 18.4427378,28.2661851 18.9924596,28.2661851 C19.7140429,28.2661851 20.4638775,28.1504393 21.2407861,27.9189478 C22.0176948,27.6874562 22.6733586,27.3170697 23.2066004,26.8077882 C23.3160739,27.3483211 23.5515008,27.7256523 23.912881,27.9420969 C24.2742613,28.1585416 24.7286351,28.2661851 25.2783569,28.2661851 C25.3878303,28.2661851 25.5220237,28.2580829 25.6785825,28.243036 C25.8351414,28.227989 25.9928774,28.2048399 26.1494363,28.1735885 C26.3059951,28.1423371 26.4590226,28.1076134 26.6085186,28.0694173 C26.7580147,28.0312212 26.8792595,27.9964975 26.9734303,27.9652461 L26.9734303,26.1364627 C26.8321742,26.167714 26.7062208,26.182761 26.5967473,26.182761 C26.4849195,26.182761 26.3919259,26.182761 26.3130579,26.182761 L26.3130579,26.182761 Z M22.9935391,23.9141436 C22.9935391,24.3308284 22.8911284,24.6826956 22.6874842,24.9674303 C22.48384,25.2533223 22.2284018,25.4882863 21.9223469,25.6734795 C21.616292,25.8586728 21.2902258,25.9894655 20.9453254,26.0670152 C20.5992479,26.1445649 20.2778902,26.182761 19.9800753,26.182761 C19.7446484,26.182761 19.4821474,26.1596118 19.1913953,26.1133135 C18.9006431,26.0670152 18.6334336,25.9859932 18.3909439,25.8702474 C18.1472771,25.7545016 17.9401015,25.5970873 17.7670627,25.3956897 C17.594024,25.1954495 17.5080932,24.9489109 17.5080932,24.6549166 C17.5080932,24.3157815 17.5669499,24.026417 17.6846633,23.7868232 C17.8023768,23.5472295 17.9636442,23.3550915 18.1672884,23.2080943 C18.3709326,23.0610972 18.6063595,22.9453514 18.873569,22.860857 C19.1407785,22.7763625 19.4150508,22.7103874 19.697563,22.6640891 C20.2943701,22.5564456 20.8900001,22.4754235 21.4868072,22.421023 C22.0836143,22.3677799 22.5850735,22.2092082 22.9935391,21.9464653 L22.9935391,23.9141436 L22.9935391,23.9141436 Z" id="Shape" fill="#3D70B2"></path>
                    <path d="M39.2850782,17.5145592 C38.8142245,16.9358302 38.2221259,16.4797918 37.5076054,16.1487589 C36.7930848,15.8165685 35.9573194,15.651052 35.0003092,15.651052 C34.2151606,15.651052 33.4853374,15.8015215 32.8108394,16.1024606 C32.1363414,16.4033996 31.6101624,16.9011065 31.2334794,17.5955812 L31.186394,17.5955812 L31.186394,15.9751402 L28.6437839,15.9751402 L28.6437839,32.3647434 L31.3276501,32.3647434 L31.3276501,26.3922609 L31.3747355,26.3922609 C31.5783798,26.7163491 31.8338179,26.9976113 32.1398728,27.2372051 C32.4459278,27.4756414 32.7790568,27.6735667 33.140437,27.8275086 C33.5018172,27.9814505 33.8785002,28.0937239 34.270486,28.1631714 C34.6624717,28.2326189 35.0556346,28.2673426 35.4476203,28.2673426 C36.3422424,28.2673426 37.119151,28.0937239 37.7783462,27.7464866 C38.4375415,27.3992492 38.9825547,26.9362661 39.414563,26.3575371 C39.8453941,25.7788082 40.1679289,25.110955 40.3798131,24.3551351 C40.5916973,23.5993151 40.6976394,22.8191885 40.6976394,22.0170702 C40.6976394,21.1374022 40.5799259,20.3121348 40.3444991,19.5401104 C40.1090722,18.7669285 39.7559319,18.0932881 39.2850782,17.5145592 L39.2850782,17.5145592 Z M37.837203,23.5090334 C37.7194895,24.0113701 37.5229081,24.4581488 37.2486358,24.8516845 C36.9743635,25.2452201 36.6247546,25.565836 36.2009863,25.8123745 C35.7772179,26.058913 35.2592788,26.182761 34.6471689,26.182761 C34.0974472,26.182761 33.6148221,26.0751174 33.1992937,25.8586728 C32.7825882,25.6422282 32.4259165,25.3493913 32.1281015,24.9790048 C31.8302865,24.6086183 31.6054538,24.165312 31.4571349,23.6479283 C31.3076389,23.1305446 31.2334794,22.5714925 31.2334794,21.9696144 C31.2334794,20.6883086 31.519523,19.6628009 32.0927875,18.8907765 C32.6660519,18.1187522 33.51712,17.7333187 34.6471689,17.7333187 C35.1968907,17.7333187 35.6830471,17.8525368 36.1068155,18.0921306 C36.5305839,18.3305669 36.8837242,18.6477104 37.1662364,19.0412461 C37.4487486,19.4347817 37.6606328,19.8861903 37.8018889,20.3954717 C37.9431451,20.9047532 38.0137731,21.4302391 38.0137731,21.9696144 C38.0137731,22.4951003 37.9549164,23.0078541 37.837203,23.5090334 L37.837203,23.5090334 Z" id="Shape" fill="#3D70B2"></path>
                    <rect id="Rectangle-path" fill="#3D70B2" x="43.5933898" y="16.4265488" width="2.68386626" height="11.9681142"></rect>
                    <rect id="Rectangle-4" fill="#3D70B2" x="0" y="50.4697104" width="62.132616" height="3.78592325"></rect>
                </g>
            </g>
        </g>
    </g>
</svg>
