<svg id="banner" xmlns="http://www.w3.org/2000/svg" viewBox="0 0 36 36"  enable-background="new 0 0 36 36" width="36" height="36"><defs>
	<style>
		.cls-1,.cls-2{fill:#CCC;}

	</style>
</defs>
	<title>apic_portal_logo</title>
	<circle class="cls-1" cx="18.6" cy="25.96" r="0.92" transform="translate(-7 6.87) rotate(-17.66)"/><circle class="cls-1" cx="16.78" cy="20.27" r="0.92" transform="translate(-5.36 6.05) rotate(-17.66)"/>
	<rect class="cls-1" x="17.46" y="20.37" width="0.71" height="5.36" transform="translate(41.59 39.63) rotate(162.34)"/><circle class="cls-1" cx="8.47" cy="15.68" r="0.92" transform="matrix(1, -0.07, 0.07, 1, -1.02, 0.59)"/>
	<circle class="cls-1" cx="11.3" cy="16.77" r="0.92" transform="translate(-1.08 0.78) rotate(-3.79)"/>
	<circle class="cls-1" cx="8.95" cy="23" r="0.92" transform="translate(-1.5 0.64) rotate(-3.79)"/>
	<rect class="cls-1" x="8.47" y="16.07" width="0.71" height="6.96" transform="translate(-1.27 0.62) rotate(-3.79)"/>
	<circle class="cls-1" cx="13.5" cy="28.75" r="0.92" transform="translate(-14.92 14.57) rotate(-38.32)"/>
	<rect class="cls-1" x="11.11" y="22.41" width="0.71" height="6.96" transform="translate(-13.61 12.62) rotate(-38.32)"/>
	<circle class="cls-1" cx="22.88" cy="30.18" r="0.92" transform="translate(-10.4 48.27) rotate(-81.36)"/>
	<rect class="cls-1" x="17.94" y="24.98" width="0.71" height="8.68" transform="translate(-13.52 42.9) rotate(-81.36)"/>
	<circle class="cls-1" cx="11.86" cy="9.17" r="0.92" transform="translate(-1.76 15.44) rotate(-62.43)"/>
	<rect class="cls-1" x="9.81" y="8.98" width="0.71" height="6.96" transform="translate(6.91 -3.24) rotate(27.57)"/>
	<circle class="cls-1" cx="18.38" cy="5.92" r="0.92" transform="translate(-0.63 9.04) rotate(-27.17)"/>
	<rect class="cls-1" x="14.68" y="3.96" width="0.71" height="6.96" transform="translate(14.73 -9.24) rotate(62.83)"/>
	<circle class="cls-1" cx="25.48" cy="7.69" r="0.92" transform="translate(11.57 30.38) rotate(-75.28)"/>
	<circle class="cls-1" cx="29.21" cy="16.05" r="0.92" transform="translate(6.27 40.22) rotate(-75.28)"/>
	<rect class="cls-1" x="21.47" y="3.07" width="0.71" height="6.96" transform="translate(33.59 -12.8) rotate(104.72)"/>
	<circle class="cls-1" cx="31.18" cy="12.32" r="0.92" transform="translate(1.95 28.75) rotate(-50.9)"/>
	<rect class="cls-1" x="27.91" y="6.24" width="0.71" height="6.96" transform="translate(53.47 -6.01) rotate(129.1)"/>
	<circle class="cls-1" cx="32.08" cy="19.6" r="0.92" transform="translate(-2.17 4.1) rotate(-7.07)"/>
	<rect class="cls-1" x="31.35" y="12.12" width="0.71" height="6.96" transform="translate(64.89 27.18) rotate(172.93)"/>
	<circle class="cls-1" cx="29.16" cy="26.33" r="0.92" transform="translate(-6.59 42.62) rotate(-66.58)"/>
	<rect class="cls-1" x="30.28" y="19.53" width="0.71" height="6.96" transform="translate(11.66 -10.24) rotate(23.42)"/>
	<rect class="cls-1" x="25.59" y="24.72" width="0.71" height="6.96" transform="translate(36.43 -8.56) rotate(58.56)"/>
	<circle class="cls-1" cx="15.79" cy="10.08" r="0.92" transform="translate(2.43 23.21) rotate(-77.05)"/>
	<rect class="cls-1" x="13.85" y="7.79" width="0.71" height="3.8" transform="translate(1.5 21.26) rotate(-77.05)"/>
	<rect class="cls-1" x="11.78" y="8.47" width="0.71" height="8.61" transform="translate(14.91 -4.54) rotate(52.73)"/>
	<circle class="cls-1" cx="23.28" cy="20.91" r="0.92" transform="translate(-8.01 21.11) rotate(-42.29)"/>
	<circle class="cls-1" cx="24.79" cy="25.19" r="0.92" transform="translate(-10.5 23.23) rotate(-42.29)"/>
	<circle class="cls-1" cx="28.26" cy="23" r="0.92" transform="translate(-8.12 24.99) rotate(-42.29)"/>
	<rect class="cls-1" x="16.03" y="10.3" width="0.71" height="9.57" transform="translate(-1.37 1.62) rotate(-5.48)"/>
	<rect class="cls-1" x="16.83" y="5.86" width="0.71" height="4.19" transform="translate(6.66 -7.74) rotate(31.45)"/>
	<rect class="cls-1" x="15.65" y="24.77" width="0.71" height="5.36" transform="translate(-0.71 54.6) rotate(-118.76)"/>
	<rect class="cls-1" x="20.56" y="25.44" width="0.71" height="5.36" transform="translate(55.44 33.11) rotate(134.71)"/>
	<rect class="cls-1" x="13.54" y="19.67" width="0.71" height="9.33" transform="translate(-13.71 30.4) rotate(-72.97)"/>
	<rect class="cls-1" x="12.74" y="17.56" width="0.71" height="7.75" transform="translate(28.91 2.07) rotate(70.64)"/>
	<rect class="cls-1" x="9.71" y="15.06" width="0.71" height="2.4" transform="translate(-8.8 19.66) rotate(-68.79)"/>
	<rect class="cls-1" x="20.41" y="4.12" width="0.71" height="9.18" transform="translate(24.2 -13.43) rotate(76.22)"/>
	<rect class="cls-1" x="27.05" y="7.19" width="0.71" height="8.83" transform="translate(-2.36 12.14) rotate(-24.05)"/>
	<rect class="cls-1" x="30.48" y="15.42" width="0.71" height="4.63" transform="translate(65.77 12.13) rotate(140.92)"/>
	<rect class="cls-1" x="30.01" y="11.95" width="0.71" height="3.97" transform="translate(50.8 40.17) rotate(-152.77)"/>
	<rect class="cls-1" x="13.74" y="15.54" width="0.71" height="5.6" transform="translate(-9 20.25) rotate(-57.38)"/>
	<circle class="cls-1" cx="22.5" cy="14.28" r="0.92" transform="translate(-4.07 16.35) rotate(-36.87)"/>
	<rect class="cls-1" x="25.93" y="14.97" width="0.71" height="6.93" transform="translate(28.38 50.38) rotate(-129.08)"/>
	<rect class="cls-1" x="9.88" y="16.97" width="0.71" height="5.75" transform="translate(7.67 -2.3) rotate(20.71)"/>
	<rect class="cls-1" x="13.26" y="9.63" width="0.71" height="7.39" transform="translate(9.7 -5.26) rotate(33.8)"/>
	<rect class="cls-1" x="28.5" y="15.94" width="0.71" height="6.83" transform="translate(54.54 42.71) rotate(-172.02)"/>
	<rect class="cls-1" x="30.05" y="18.72" width="0.71" height="4.63" transform="translate(34.46 57.69) rotate(-131.23)"/>
	<rect class="cls-1" x="25.55" y="19.66" width="0.71" height="4.63" transform="translate(-4.49 37.18) rotate(-67.07)"/>
	<rect class="cls-1" x="28.52" y="23.34" width="0.71" height="3.06" transform="translate(-5.5 8.39) rotate(-15.16)"/>
	<rect class="cls-1" x="18.84" y="8.07" width="0.71" height="7.84" transform="translate(39.39 2.17) rotate(122.05)"/>
	<rect class="cls-1" x="19.3" y="13.44" width="0.71" height="7.84" transform="translate(21.72 43.42) rotate(-136.34)"/>
	<rect class="cls-1" x="19.77" y="17.41" width="0.71" height="6.35" transform="translate(42.61 2.86) rotate(96.06)"/>
	<rect class="cls-1" x="23.77" y="7.19" width="0.71" height="7.1" transform="translate(41.43 30.48) rotate(-155.71)"/>
	<rect class="cls-1" x="25.59" y="11.68" width="0.71" height="6.97" transform="matrix(-0.25, 0.97, -0.97, -0.25, 47.04, -6)"/>
	<rect class="cls-1" x="22.65" y="14.42" width="0.71" height="6.52" transform="translate(-1.89 2.77) rotate(-6.65)"/>
	<rect class="cls-1" x="23.85" y="21.18" width="0.71" height="4.09" transform="translate(-6.36 9.36) rotate(-19.46)"/>
	<rect class="cls-1" x="20.67" y="20.32" width="0.71" height="6.26" transform="translate(20.13 54.86) rotate(-136.83)"/>
	<rect class="cls-1" x="21.28" y="22.54" width="0.71" height="5.77" transform="translate(44.2 1.01) rotate(83.15)"/>
	<rect class="cls-1" x="26.12" y="22.21" width="0.71" height="3.65" transform="translate(32.75 -11.07) rotate(57.94)"/>
	<rect class="cls-1" x="26.6" y="23.49" width="0.71" height="4.17" transform="translate(58.42 6.11) rotate(104.73)"/>
	<rect class="cls-1" x="23.56" y="24.93" width="0.71" height="5.42" transform="translate(36 62.03) rotate(-158.77)"/>
</svg>
