<?xml version="1.0" encoding="UTF-8"?>
<svg id="Layer_2" data-name="Layer 2" xmlns="http://www.w3.org/2000/svg" xmlns:xlink="http://www.w3.org/1999/xlink" viewBox="0 0 32 32">
  <defs>
    <style>
      .cls-1 {
        fill: url(#linear-gradient);
      }

      .cls-2 {
        mask: url(#mask);
      }

      .cls-3 {
        fill: #f4f4f4;
      }

      .cls-4 {
        fill: #fff;
      }

      .cls-5 {
        fill: url(#linear-gradient-3);
      }

      .cls-6 {
        fill: url(#linear-gradient-2);
      }
    </style>
    <linearGradient id="linear-gradient" x1="26.5" y1="30" x2="26.5" y2="8" gradientUnits="userSpaceOnUse">
      <stop offset=".3" stop-color="#000"/>
      <stop offset=".95" stop-color="#000" stop-opacity="0"/>
    </linearGradient>
    <linearGradient id="linear-gradient-2" x1="673.5" y1="40" x2="673.5" y2="18" gradientTransform="translate(-668 -16)" xlink:href="#linear-gradient"/>
    <mask id="mask" x="1" y="2" width="30" height="28" maskUnits="userSpaceOnUse">
      <g>
        <g>
          <path class="cls-4" d="M24.52,27.11c5.02-3.85,6.83-10.62,4.41-16.47C25.98,3.51,17.77,.11,10.64,3.07l.77,1.85c6.11-2.53,13.15,.38,15.68,6.49,2.08,5.01,.52,10.82-3.78,14.11l1.22,1.59Z"/>
          <path class="cls-4" d="M10.65,28.93c3.31,1.37,7.15,1.48,10.71,0l-.77-1.85c-6.11,2.53-13.15-.38-15.68-6.49-2.08-5.01-.52-10.82,3.78-14.11l-1.22-1.59C2.46,8.74,.64,15.51,3.07,21.36c1.48,3.57,4.27,6.2,7.58,7.57Z"/>
        </g>
        <rect class="cls-1" x="22" y="8" width="9" height="22"/>
        <rect class="cls-6" x="1" y="2" width="9" height="22" transform="translate(11 26) rotate(180)"/>
      </g>
    </mask>
    <linearGradient id="linear-gradient-3" x1="0" y1="32" x2="32" y2="0" gradientUnits="userSpaceOnUse">
      <stop offset=".1" stop-color="#3ddbd9"/>
      <stop offset=".9" stop-color="#4589ff"/>
    </linearGradient>
  </defs>
  <g id="Build_icon_here" data-name="Build icon here">
    <g>
      <g class="cls-2">
        <rect class="cls-5" width="32" height="32"/>
      </g>
      <path class="cls-3" d="M25,23c-1.12,0-2,.88-2,2s.88,2,2,2,2-.88,2-2-.88-2-2-2Z"/>
      <path class="cls-3" d="M7,5c-1.12,0-2,.88-2,2s.88,2,2,2,2-.88,2-2-.88-2-2-2Z"/>
      <path class="cls-3" d="M22,12c-1.14,0-2.16,.48-2.89,1.25l-3.16-1.76c.03-.16,.05-.33,.05-.5,0-1.65-1.35-3-3-3s-3,1.35-3,3c0,1.09,.59,2.04,1.47,2.57l-.9,4.48c-1.45,.21-2.57,1.45-2.57,2.96,0,1.65,1.35,3,3,3s3-1.35,3-3c0-.09-.02-.17-.03-.25l4.93-2.24c.73,.9,1.84,1.5,3.09,1.5,2.21,0,4-1.79,4-4s-1.79-4-4-4Zm-9-2c.55,0,1,.45,1,1s-.45,1-1,1-1-.45-1-1,.45-1,1-1Zm-2,12c-.55,0-1-.45-1-1s.45-1,1-1c.41,0,.77,.25,.92,.61h0c.05,.12,.08,.25,.08,.39,0,.55-.45,1-1,1Zm2.16-3.08c-.18-.19-.39-.35-.62-.49l.9-4.48c.59-.09,1.12-.34,1.55-.72l3.17,1.76c-.08,.32-.14,.65-.14,1,0,.24,.03,.46,.07,.69l-4.91,2.23Zm8.84-.92c-1.1,0-2-.9-2-2s.9-2,2-2,2,.9,2,2-.9,2-2,2Z"/>
    </g>
  </g>
</svg>