<?xml version="1.0" encoding="UTF-8"?>
<svg width="47px" height="46px" viewBox="0 0 47 46" version="1.1" xmlns="http://www.w3.org/2000/svg" xmlns:xlink="http://www.w3.org/1999/xlink">
    <title>icon/image/desktop/32</title>
    <g id="Aug11---Portal-CarbonX" stroke="none" stroke-width="1" fill="none" fill-rule="evenodd">
        <g id="E02-portal-homepage" transform="translate(-992.000000, -623.000000)" fill="#000000">
            <g id="Get-started" transform="translate(0.000000, 434.000000)">
                <g id="pictograms/untitled/" transform="translate(992.000000, 188.000000)">
                    <path d="M38.0406,1.49955 C38.3391,1.49955 38.5806,1.74105 38.5806,2.04105 L38.5806,20.99955 L45.54105,21 C45.83955,21 46.08105,21.2415 46.08105,21.54 L46.08105,45.54 C46.08105,45.84 45.83955,46.0815 45.54105,46.0815 L32.04105,46.0815 C31.74105,46.0815 31.49955,45.84 31.49955,45.54 L31.4986,32.58055 L26.0406,32.58105 L26.0406,31.49955 L37.49955,31.5 L37.4986,26.58055 L26.04,26.58105 L26.04,25.49955 L37.4986,25.49955 L37.49955,21.54 L37.5006,21.51755 L37.5006,2.58105 L1.0806,2.58105 L1.0796,25.39155 L8.04,25.39155 L8.04,26.68905 L1.0796,26.68855 L1.0806,31.49955 L8.0406,31.49955 L8.0406,32.58105 L0.5406,32.58105 C0.2421,32.58105 0.0006,32.33955 0.0006,32.04105 L0.0006,2.04105 C0.0006,1.74105 0.2421,1.49955 0.5406,1.49955 L38.0406,1.49955 Z M44.9986,40.08055 L32.5806,40.08055 L32.58105,45 L44.99955,45 L44.9986,40.08055 Z M12.5406,19.49955 C13.6851,19.49955 14.5806,20.41455 14.5806,21.58155 L14.5821,26.48805 C14.8671,26.33655 15.1926,26.24955 15.5406,26.24955 C16.3446,26.24955 17.0256,26.70105 17.3601,27.37305 C17.6916,27.13755 18.0966,26.99955 18.5406,26.99955 C19.5726,26.99955 20.4051,27.74655 20.5566,28.75005 C20.8461,28.59105 21.1821,28.49955 21.5406,28.49955 C22.6851,28.49955 23.5806,29.41455 23.5806,30.58155 L23.5806,38.04105 C23.5806,41.76855 20.7681,44.58105 17.0406,44.58105 C13.3131,44.58105 10.5006,41.76855 10.5006,38.04105 L10.5006,21.58155 C10.5006,20.41455 11.3961,19.49955 12.5406,19.49955 Z M12.5406,20.58105 C12.0036,20.58105 11.5806,21.02055 11.5806,21.58155 L11.5806,38.04105 C11.5806,41.15355 13.9281,43.49955 17.0406,43.49955 C20.1531,43.49955 22.5006,41.15355 22.5006,38.04105 L22.5006,30.58155 C22.5006,30.02055 22.0776,29.58105 21.5406,29.58105 C21.0036,29.58105 20.5806,30.02055 20.5806,30.58155 L20.5806,32.04105 C20.5806,32.33955 20.3391,32.58105 20.0406,32.58105 C19.7421,32.58105 19.5006,32.33955 19.5006,32.04105 L19.5006,29.08155 C19.5006,28.52055 19.0776,28.08105 18.5406,28.08105 C18.0126,28.08105 17.5986,28.50105 17.5806,29.04705 L17.5836,32.04105 C17.5836,32.33805 17.3421,32.57955 17.0436,32.58105 C16.7466,32.58105 16.5051,32.33955 16.5036,32.04105 L16.5006,29.08155 C16.5006,29.06505 16.5006,29.05005 16.5021,29.03205 L16.5006,28.33155 C16.5006,27.77055 16.0776,27.33105 15.5406,27.33105 C15.0051,27.33105 14.5836,27.77055 14.5836,28.33155 L14.5836,32.04105 C14.5836,32.33955 14.3421,32.58105 14.0436,32.58105 C13.7451,32.58105 13.5036,32.33955 13.5036,32.04105 L13.5006,21.58155 C13.5006,21.02055 13.0776,20.58105 12.5406,20.58105 Z M44.99955,22.0815 L38.58105,22.0815 L38.58105,32.04 C38.58105,32.34 38.33955,32.5815 38.04105,32.5815 L32.58105,32.5815 L32.5806,38.99955 L44.9986,38.99955 L44.99955,22.0815 Z" id="Fill-13"></path>
                </g>
            </g>
        </g>
    </g>
</svg>