<?xml version="1.0" encoding="UTF-8"?>
<svg viewBox="0 0 150 150" version="1.1" xmlns="http://www.w3.org/2000/svg" xmlns:xlink="http://www.w3.org/1999/xlink">
    <!-- Generator: Sketch 45 (43475) - http://www.bohemiancoding.com/sketch -->
    <title>Group 4</title>
    <desc>Created with Sketch.</desc>
    <defs></defs>
    <g id="Page-1" stroke="none" stroke-width="1" fill="none" fill-rule="evenodd">
        <g id="Homepage-1-Copy-4" transform="translate(-1145.000000, -477.000000)">
            <g id="Group-4" transform="translate(1145.000000, 477.000000)">
                <ellipse id="Oval-47" fill="#EAF0F8" cx="74.8700142" cy="74.9560749" rx="74.8700142" ry="74.9560749"></ellipse>
                <g id="Group" transform="translate(47.435897, 41.300981)">
                    <polygon id="Page-1" fill="#5AAAFA" points="18.227528 0.00455423765 0 18.2260591 0 19.3054134 0 58.9773776 0 63.7638814 45.5688201 63.7638814 45.5688201 36.4384555 41.0119381 40.9926931 41.0119381 59.214198 4.55688201 59.214198 4.55688201 18.2260591 18.227528 18.2260591 18.227528 4.56334613 41.0119381 4.56334613 41.0119381 13.6809299 45.5688201 9.11758379 45.5688201 0.00455423765"></polygon>
                    <polygon id="Path" fill="#3D70B2" points="31.7062033 27.3208717 27.1493213 40.9972474 40.8199673 36.429347 59.0429384 18.2123964 49.9474019 9.08570412"></polygon>
                    <polygon id="Path" fill="#41D6C3" points="54.4723858 4.53146647 63.5679223 13.662713 68.1612593 9.10847531 59.0429384 0"></polygon>
                </g>
            </g>
        </g>
    </g>
</svg>