<?xml version="1.0" encoding="UTF-8"?>
<svg width="47px" height="47px" viewBox="0 0 47 47" version="1.1" xmlns="http://www.w3.org/2000/svg" xmlns:xlink="http://www.w3.org/1999/xlink">
    <title>icon/image/desktop/32</title>
    <g id="Aug11---Portal-CarbonX" stroke="none" stroke-width="1" fill="none" fill-rule="evenodd">
        <g id="E02-portal-homepage" transform="translate(-673.000000, -623.000000)" fill="#000000">
            <g id="Get-started" transform="translate(0.000000, 434.000000)">
                <g id="pictograms/cloud/marketplace" transform="translate(672.000000, 188.000000)">
                    <path d="M24.53985,37.5 C27.31935,37.5 29.57985,39.762 29.57985,42.54 C29.57985,45.3195 27.31935,47.5815 24.53985,47.5815 C21.76035,47.5815 19.49985,45.3195 19.49985,42.54 C19.49985,39.762 21.76035,37.5 24.53985,37.5 Z M24.53985,38.5815 C22.35585,38.5815 20.57985,40.356 20.57985,42.54 C20.57985,44.724 22.35585,46.5 24.53985,46.5 C26.72385,46.5 28.49985,44.724 28.49985,42.54 C28.49985,40.356 26.72385,38.5815 24.53985,38.5815 Z M8.2488,33.70485 C10.1508,31.79985 13.4718,31.79985 15.3753,33.70485 C16.3278,34.65735 16.8513,35.92185 16.8513,37.26885 C16.8513,38.61435 16.3278,39.88035 15.3753,40.83285 C14.4243,41.78535 13.1583,42.30885 11.8113,42.30885 C10.4658,42.30885 9.1998,41.78535 8.2488,40.83285 C7.2963,39.88035 6.7713,38.61435 6.7713,37.26885 C6.7713,35.92185 7.2963,34.65735 8.2488,33.70485 Z M33.70335,33.70485 C35.60835,31.79985 38.92785,31.79985 40.83135,33.70485 C41.78385,34.65735 42.30735,35.92185 42.30735,37.26885 C42.30735,38.61435 41.78385,39.88035 40.83135,40.83285 C39.88035,41.78535 38.61435,42.30885 37.26735,42.30885 C35.92185,42.30885 34.65585,41.78535 33.70335,40.83285 C32.75235,39.88035 32.22735,38.61435 32.22735,37.26885 C32.22735,35.92185 32.75235,34.65735 33.70335,33.70485 Z M11.8113,33.30885 C10.7538,33.30885 9.7593,33.72135 9.0123,34.46985 C8.2638,35.21685 7.8513,36.21135 7.8513,37.26885 C7.8513,38.32635 8.2638,39.32085 9.0123,40.06785 C10.5078,41.56485 13.1163,41.56485 14.6118,40.06785 C15.3603,39.32085 15.7713,38.32635 15.7713,37.26885 C15.7713,36.21135 15.3603,35.21685 14.6118,34.46985 C13.8633,33.72135 12.8688,33.30885 11.8113,33.30885 Z M37.26735,33.30885 C36.20985,33.30885 35.21535,33.72135 34.46685,34.46985 C33.71985,35.21685 33.30735,36.21135 33.30735,37.26885 C33.30735,38.32635 33.71985,39.32085 34.46685,40.06785 C35.96385,41.56485 38.57235,41.56485 40.06785,40.06785 C40.81635,39.32085 41.22735,38.32635 41.22735,37.26885 C41.22735,36.21135 40.81635,35.21685 40.06785,34.46985 C39.31935,33.72135 38.32485,33.30885 37.26735,33.30885 Z M25.0797,15.5406 L25.0797,23.2731 L30.5382,17.8161 L31.3002,18.5796 L25.8612,24.0186 L33.5442,24.0186 L33.5442,25.1001 L25.8507,25.1001 L31.2837,30.5331 L30.5202,31.2981 L25.0797,25.8576 L25.0797,33.5406 L23.9997,33.5406 L23.9997,25.8816 L18.5727,31.3086 L17.8092,30.5436 L23.2527,25.1001 L15.5442,25.1001 L15.5442,24.0186 L23.2422,24.0186 L17.7927,18.5691 L18.5562,17.8056 L23.9997,23.2506 L23.9997,15.5406 L25.0797,15.5406 Z M6.53985,19.5 C9.31935,19.5 11.57985,21.762 11.57985,24.54 C11.57985,27.3195 9.31935,29.5815 6.53985,29.5815 C3.76035,29.5815 1.49985,27.3195 1.49985,24.54 C1.49985,21.762 3.76035,19.5 6.53985,19.5 Z M42.53985,19.5 C45.31935,19.5 47.57985,21.762 47.57985,24.54 C47.57985,27.3195 45.31935,29.5815 42.53985,29.5815 C39.76035,29.5815 37.49985,27.3195 37.49985,24.54 C37.49985,21.762 39.76035,19.5 42.53985,19.5 Z M6.53985,20.5815 C4.35585,20.5815 2.57985,22.356 2.57985,24.54 C2.57985,26.724 4.35585,28.5 6.53985,28.5 C8.72385,28.5 10.49985,26.724 10.49985,24.54 C10.49985,22.356 8.72385,20.5815 6.53985,20.5815 Z M42.53985,20.5815 C40.35585,20.5815 38.57985,22.356 38.57985,24.54 C38.57985,26.724 40.35585,28.5 42.53985,28.5 C44.72385,28.5 46.49985,26.724 46.49985,24.54 C46.49985,22.356 44.72385,20.5815 42.53985,20.5815 Z M8.2482,8.2482 C10.1517,6.3447 13.4727,6.3447 15.3747,8.2482 C16.3272,9.2007 16.8522,10.4667 16.8522,11.8122 C16.8522,13.1592 16.3272,14.4237 15.3747,15.3762 C14.4237,16.3287 13.1577,16.8537 11.8122,16.8537 C10.4652,16.8537 9.1992,16.3287 8.2482,15.3762 C7.2957,14.4237 6.7722,13.1592 6.7722,11.8122 C6.7722,10.4667 7.2957,9.2007 8.2482,8.2482 Z M33.7035,8.2482 C35.6085,6.3447 38.928,6.3447 40.8315,8.2482 C41.7825,9.2007 42.3075,10.4667 42.3075,11.8122 C42.3075,13.1592 41.7825,14.4237 40.8315,15.3762 C39.879,16.3287 38.6145,16.8537 37.2675,16.8537 C35.922,16.8537 34.656,16.3287 33.7035,15.3762 C32.751,14.4237 32.2275,13.1592 32.2275,11.8122 C32.2275,10.4667 32.751,9.2007 33.7035,8.2482 Z M11.8122,7.8537 C10.7547,7.8537 9.7602,8.2647 9.0117,9.0132 C8.2632,9.7602 7.8522,10.7547 7.8522,11.8122 C7.8522,12.8697 8.2632,13.8642 9.0117,14.6112 C10.5072,16.1082 13.1157,16.1082 14.6112,14.6112 C15.3597,13.8642 15.7722,12.8697 15.7722,11.8122 C15.7722,10.7547 15.3597,9.7602 14.6112,9.0132 C13.8642,8.2647 12.8697,7.8537 11.8122,7.8537 Z M37.2675,7.8537 C36.21,7.8537 35.2155,8.2647 34.467,9.0132 C33.7185,9.7602 33.3075,10.7547 33.3075,11.8122 C33.3075,12.8697 33.7185,13.8642 34.467,14.6112 C35.964,16.1082 38.5725,16.1082 40.068,14.6112 C40.815,13.8642 41.2275,12.8697 41.2275,11.8122 C41.2275,10.7547 40.815,9.7602 40.068,9.0132 C39.3195,8.2647 38.325,7.8537 37.2675,7.8537 Z M24.53985,1.49955 C27.31935,1.49955 29.57985,3.76155 29.57985,6.54105 C29.57985,9.31905 27.31935,11.58105 24.53985,11.58105 C21.76035,11.58105 19.49985,9.31905 19.49985,6.54105 C19.49985,3.76155 21.76035,1.49955 24.53985,1.49955 Z M24.53985,2.58105 C22.35585,2.58105 20.57985,4.35705 20.57985,6.54105 C20.57985,8.72505 22.35585,10.49955 24.53985,10.49955 C26.72385,10.49955 28.49985,8.72505 28.49985,6.54105 C28.49985,4.35705 26.72385,2.58105 24.53985,2.58105 Z" id="Fill-20"></path>
                </g>
            </g>
        </g>
    </g>
</svg>