<?xml version="1.0" encoding="UTF-8"?>
<svg viewBox="0 0 151 150" version="1.1" xmlns="http://www.w3.org/2000/svg" xmlns:xlink="http://www.w3.org/1999/xlink">
    <title>globe</title>
    <g stroke="none" stroke-width="1" fill="none" fill-rule="evenodd">
        <g transform="translate(-645.000000, -477.000000)">
            <g transform="translate(645.000000, 477.000000)">
                <g fill="#EAF0F8">
                    <ellipse cx="75.3724976" cy="74.9560749" rx="75.3724976" ry="74.9560749"></ellipse>
                </g>
                <g transform="translate(45.000000, 33.000000)">
                    <rect fill="#3D70B2" x="15.4" y="75.6" width="28" height="8.4"></rect>
                    <path d="M8.6107,50.1893 C14.35,55.9286 21.875,58.7986 29.4,58.7986 C36.4896,58.7986 43.5778,56.2485 49.175,51.1546 L49.1995,51.1791 L51.1791,49.1995 L51.1546,49.175 C61.656,37.6383 61.3361,19.7589 50.1893,8.6107 C44.4486,2.8714 36.9236,0.0014 29.3986,0.0014 C22.3097,0.0014 15.2222,2.5508 9.625,7.6454 L9.6005,7.6209 L7.6209,9.6005 L7.6461,9.625 C-2.856,21.1624 -2.5361,39.0425 8.6107,50.1893 L8.6107,50.1893 Z M29.3986,2.8014 C36.505,2.8014 43.1851,5.5671 48.2097,10.5903 C58.2484,20.6311 58.569,36.7647 49.1729,47.1933 L11.6067,9.6271 C16.4976,5.2157 22.7626,2.8014 29.3986,2.8014 L29.3986,2.8014 Z M47.1933,49.1729 C42.3024,53.5843 36.0374,55.9986 29.4,55.9986 C22.2936,55.9986 15.6135,53.2329 10.5903,48.2097 C0.5509,38.1703 0.231,22.0367 9.6271,11.6067 L47.1933,49.1729 L47.1933,49.1729 Z" id="Shape" fill="#5AAAFA"></path>
                    <path d="M58.1084,0.6916 L54.1492,4.6508 C60.7593,11.2609 64.4,20.0501 64.4,29.4 C64.4,38.7499 60.7593,47.5391 54.1478,54.1485 C47.5405,60.7593 38.7513,64.4 29.4,64.4 C20.0487,64.4 11.2595,60.7593 4.6522,54.1485 L0.6916,58.1077 C8.3566,65.7769 18.5528,70 29.4,70 C40.2472,70 50.4434,65.7769 58.1084,58.1084 C65.7769,50.442 70,40.2458 70,29.4 C70,18.5542 65.7769,8.358 58.1084,0.6916 L58.1084,0.6916 Z" id="Shape" fill="#41D6C3"></path>
                </g>
            </g>
        </g>
    </g>
</svg>
