<?xml version="1.0" encoding="UTF-8"?>
<svg width="47px" height="47px" viewBox="0 0 47 47" version="1.1" xmlns="http://www.w3.org/2000/svg" xmlns:xlink="http://www.w3.org/1999/xlink">
    <title>pictograms/cloud/free trial</title>
    <g id="Aug11---Portal-CarbonX" stroke="none" stroke-width="1" fill="none" fill-rule="evenodd">
        <g id="E02-portal-homepage" transform="translate(-353.000000, -623.000000)" fill="#000000">
            <g id="Get-started" transform="translate(0.000000, 434.000000)">
                <g id="pictograms/cloud/brand-guidelines" transform="translate(352.000000, 188.000000)">
                    <path d="M22.326,31.77285 L19.1385,33.88185 L19.365,30.06285 L28.7805,13.75335 L31.743,15.46335 L22.326,31.77285 Z M13.0155,4.5846 C24.0165,-1.7709 38.136,2.0136 44.4885,13.0161 C50.841,24.0186 47.058,38.1381 36.0555,44.4906 L36.0555,44.4906 L35.6015126,44.7460765 C32.1078385,46.6610036 28.31775,47.5716 24.5745,47.5716 C16.605,47.5716 8.8455,43.4391 4.5825,36.0561 C-1.77,25.0551 2.013,10.9356 13.0155,4.5846 Z M24.4995,2.5806 C20.775,2.5806 17.0055,3.5271 13.5555,5.5191 C10.959,7.0191 8.787,8.9736 7.0755,11.2236 L7.0755,11.2236 L7.0755,30.5361 L5.9955,30.5361 L5.9955,12.7956 C2.2515,18.7296 1.473,26.2806 4.2975,33.0141 L4.2975,33.0141 L21.0015,42.6576 L20.4615,43.5936 L5.118,34.7346 C5.2545,34.9941 5.37,35.2596 5.517,35.5161 C9.078,41.6841 15.2025,45.4491 21.7755,46.2906 L21.7755,46.2906 L38.4615,36.6576 L39.0015,37.5936 L23.655,46.4541 C27.6735,46.6206 31.782,45.7116 35.5155,43.5546 C38.112,42.0546 40.2855,40.0986 41.9955,37.8486 L41.9955,37.8486 L41.9955,18.5361 L43.0755,18.5361 L43.0755,36.2766 C46.8195,30.3441 47.598,22.7946 44.7735,16.0611 L44.7735,16.0611 L28.0695,6.4161 L28.6095,5.4801 L43.9545,14.3391 C43.818,14.0796 43.7025,13.8141 43.554,13.5561 C39.999,7.3986 33.8895,3.6126 27.3285,2.7636 L27.3285,2.7636 L10.6095,12.4161 L10.0695,11.4801 L25.431,2.6106 C25.1205,2.5971 24.81,2.5806 24.4995,2.5806 Z M28.1145,12.74535 C28.2645,12.48735 28.5945,12.39885 28.854,12.54735 L28.854,12.54735 L32.751,14.79735 C32.874,14.86935 32.9655,14.98785 33.0015,15.12585 C33.039,15.26385 33.0195,15.41085 32.949,15.53535 L32.949,15.53535 L23.199,32.42385 C23.1555,32.49585 23.0985,32.55735 23.028,32.60385 L23.028,32.60385 L18.8325,35.37735 C18.7425,35.43735 18.639,35.46735 18.5355,35.46735 C18.4425,35.46735 18.3495,35.44335 18.2655,35.39535 C18.0885,35.29335 17.9835,35.09985 17.9955,34.89585 L17.9955,34.89585 L18.294,29.87085 C18.2985,29.78685 18.324,29.70585 18.3645,29.63235 L18.3645,29.63235 Z" id="Fill-4"></path>
                </g>
            </g>
        </g>
    </g>
</svg>