<?xml version="1.0" encoding="utf-8"?>
<!-- Generator: Adobe Illustrator 19.0.0, SVG Export Plug-In . SVG Version: 6.00 Build 0)  -->
<svg width="240px" height="48px" version="1.1" xmlns="http://www.w3.org/2000/svg" xmlns:xlink="http://www.w3.org/1999/xlink" x="0px" y="0px"
	 viewBox="0 0 406 82" style="enable-background:new 0 0 406 82;" xml:space="preserve">
<style type="text/css">
	.st0{clip-path:url(#XMLID_255_);}
	.st1{clip-path:url(#XMLID_256_);fill:#E1E1E1;}
	.st2{clip-path:url(#XMLID_257_);}
	.st3{clip-path:url(#XMLID_258_);fill:#E1E1E1;}
	.st4{clip-path:url(#XMLID_260_);}
	.st5{clip-path:url(#XMLID_261_);fill:#E1E1E1;}
	.st6{clip-path:url(#XMLID_262_);}
	.st7{clip-path:url(#XMLID_263_);fill:#ffffff;}
	.st8{clip-path:url(#XMLID_264_);}
	.st9{clip-path:url(#XMLID_265_);fill:#ffffff;}
	.st10{clip-path:url(#XMLID_266_);}
	.st11{clip-path:url(#XMLID_267_);fill:#ffffff;}
	.st12{fill:#ffffff;}
	.st13{font-family:'Charter-Bold';}
	.st14{font-size:49.92px;}
</style>
<g id="Layer_2">
	<g id="XMLID_3_">
		<g id="XMLID_63_">
			<defs>
				<path id="XMLID_64_" d="M303.3,47.3c-0.4,0.5-0.7,0.9-1.1,1.4c-6.1,8.6-7,23.2-7,23.2c8.1-18.5,19-21.6,28.3-24.8
					c9.4-3.3,21.4-3.1,28.6-3.5c22.6-1.2,33.4-24,33.4-24c-11.7,7.8-42.9,10-48.7,11.1C319.5,33.9,309.1,40.2,303.3,47.3z"/>
			</defs>
			<clipPath id="XMLID_255_">
				<use xlink:href="#XMLID_64_"  style="overflow:visible;"/>
			</clipPath>
			<g id="XMLID_65_" class="st0">
				<defs>
					<rect id="XMLID_66_" x="231.9" y="-60.8" width="377.8" height="325.1"/>
				</defs>
				<clipPath id="XMLID_256_">
					<use xlink:href="#XMLID_66_"  style="overflow:visible;"/>
				</clipPath>

					<rect id="XMLID_67_" x="301.7" y="5.6" transform="matrix(-0.9563 -0.2924 0.2924 -0.9563 651.2235 188.3671)" class="st1" width="76" height="79.8"/>
			</g>
		</g>
		<g id="XMLID_58_">
			<defs>
				<path id="XMLID_59_" d="M332.5,62.3c21.7,2.8,33.1-12.8,39-23.8c-21.3,14.2-35.6,11.1-45.8,11.9c-4.5,0.3-9.2,1.8-15.6,6.1
					c-4.4,3-6.4,4.7-8.8,7.8c4.1-2.2,7.7-3.7,10.7-4.8C318.3,57.4,328.7,61.8,332.5,62.3z"/>
			</defs>
			<clipPath id="XMLID_257_">
				<use xlink:href="#XMLID_59_"  style="overflow:visible;"/>
			</clipPath>
			<g id="XMLID_60_" class="st2">
				<defs>
					<rect id="XMLID_61_" x="231.9" y="-60.8" width="377.8" height="325.1"/>
				</defs>
				<clipPath id="XMLID_258_">
					<use xlink:href="#XMLID_61_"  style="overflow:visible;"/>
				</clipPath>

					<rect id="XMLID_62_" x="304.9" y="27.1" transform="matrix(-0.9563 -0.2924 0.2924 -0.9563 643.1033 198.9062)" class="st3" width="62.9" height="48.6"/>
			</g>
		</g>
		<g id="XMLID_53_">
			<defs>
				<path id="XMLID_54_" d="M347.7,11.4c-8.1,8.7-14.2,7.5-26,7.5c-8.5,0-14.1,9.4-17.8,23.5l0.5-0.3c4.3-4.6,12.3-8.5,21-11.9
					c4.1-1.6,9.9-2.6,12.2-3.5C345.1,23.8,347.6,11.7,347.7,11.4z"/>
			</defs>
			<clipPath id="XMLID_260_">
				<use xlink:href="#XMLID_54_"  style="overflow:visible;"/>
			</clipPath>
			<g id="XMLID_55_" class="st4">
				<defs>
					<rect id="XMLID_56_" x="231.9" y="-60.8" width="377.8" height="325.1"/>
				</defs>
				<clipPath id="XMLID_261_">
					<use xlink:href="#XMLID_56_"  style="overflow:visible;"/>
				</clipPath>

					<rect id="XMLID_57_" x="307.6" y="4" transform="matrix(-0.9563 -0.2924 0.2924 -0.9563 629.5163 147.766)" class="st5" width="36.3" height="45.8"/>
			</g>
		</g>
	</g>
</g>
<g id="Layer_1">
	<g id="XMLID_89_">
		<g id="XMLID_179_">
			<defs>
				<path id="XMLID_180_" d="M303.3,46.2c-0.4,0.5-0.7,0.9-1.1,1.4c-6.1,8.6-7,24.3-7,24.3c6.9-19,18.9-23,28.3-26.3
					c9.5-3.3,22.3-3.4,29.6-3.8c22.7-1.2,32.8-23,32.8-23c-5.9,8.3-43,9.6-48.9,10.7C319.6,32.8,309.1,39.1,303.3,46.2z"/>
			</defs>
			<clipPath id="XMLID_262_">
				<use xlink:href="#XMLID_180_"  style="overflow:visible;"/>
			</clipPath>
			<g id="XMLID_181_" class="st6">
				<defs>
					<rect id="XMLID_242_" x="231.9" y="-60.8" width="377.8" height="325.1"/>
				</defs>
				<clipPath id="XMLID_263_">
					<use xlink:href="#XMLID_242_"  style="overflow:visible;"/>
				</clipPath>

					<rect id="XMLID_259_" x="301.5" y="4.9" transform="matrix(-0.9563 -0.2924 0.2924 -0.9563 651.3328 187.7182)" class="st7" width="76.3" height="80.6"/>
			</g>
		</g>
		<g id="XMLID_148_">
			<defs>
				<path id="XMLID_175_" d="M332.8,60.9c21.7,2.9,35-15.8,38.7-22.6c-21.3,14.2-35.6,10.2-45.7,11c-4.5,0.3-9.3,1.8-15.7,6.1
					c-4.4,3-6.5,5.8-8.9,8.9c4.2-2.9,7.8-4.9,10.9-5.9C318.4,56.3,329,60.4,332.8,60.9z"/>
			</defs>
			<clipPath id="XMLID_264_">
				<use xlink:href="#XMLID_175_"  style="overflow:visible;"/>
			</clipPath>
			<g id="XMLID_176_" class="st8">
				<defs>
					<rect id="XMLID_177_" x="231.9" y="-60.8" width="377.8" height="325.1"/>
				</defs>
				<clipPath id="XMLID_265_">
					<use xlink:href="#XMLID_177_"  style="overflow:visible;"/>
				</clipPath>

					<rect id="XMLID_178_" x="304.9" y="27" transform="matrix(-0.9563 -0.2924 0.2924 -0.9563 643.0613 198.7873)" class="st9" width="63" height="48.8"/>
			</g>
		</g>
		<g id="XMLID_90_">
			<defs>
				<path id="XMLID_91_" d="M348,10.4c-8.1,8.7-14.4,7.4-26.2,7.4c-8.5,0-14.1,10.5-17.9,24.6l0.3-0.1c3.9-4.9,12.5-9.8,21.3-13.2
					c4.1-1.6,9.9-2.6,12.3-3.5C345.2,22.8,348,10.4,348,10.4z"/>
			</defs>
			<clipPath id="XMLID_266_">
				<use xlink:href="#XMLID_91_"  style="overflow:visible;"/>
			</clipPath>
			<g id="XMLID_92_" class="st10">
				<defs>
					<rect id="XMLID_93_" x="231.9" y="-60.8" width="377.8" height="325.1"/>
				</defs>
				<clipPath id="XMLID_267_">
					<use xlink:href="#XMLID_93_"  style="overflow:visible;"/>
				</clipPath>

					<rect id="XMLID_94_" x="307.8" y="3" transform="matrix(-0.9563 -0.2924 0.2924 -0.9563 629.8952 146.8416)" class="st11" width="36.3" height="46.8"/>
			</g>
		</g>
	</g>
	<text id="XMLID_9_" transform="matrix(1 0 0 1 18.7459 57.7186)"><tspan x="0" y="0" class="st12 st13 st14">Acme Ban</tspan><tspan x="232.6" y="0" class="st12 st13 st14">k</tspan></text>
</g>
</svg>
