<svg id="_Layer_" data-name=" Layer " xmlns="http://www.w3.org/2000/svg" viewBox="0 0 24 21.6"><defs><style>.cls-1{fill:#5a6872;}</style></defs><title>catalog_bw_24</title><path class="cls-1" d="M8.44856,1h0A2.55437,2.55437,0,0,1,11,3.55144V20.6H1V1H8.44856m0-1H0V21.6H12V3.55144A3.55148,3.55148,0,0,0,8.44856,0Z" transform="translate(0 -0.00002)"/><rect class="cls-1" x="2.4" y="15.3818" width="7.2" height="0.72729"/><rect class="cls-1" x="2.4" y="12.9818" width="7.2" height="0.72729"/><rect class="cls-1" x="2.4" y="10.58173" width="7.2" height="0.72729"/><rect class="cls-1" x="2.4" y="8.18173" width="7.2" height="0.72729"/><rect class="cls-1" x="2.4" y="5.78175" width="7.2" height="0.7272"/><path class="cls-1" d="M15.55155,0a3.55157,3.55157,0,0,0-3.55161,3.55144V21.6H24V0ZM21.6,16.10911H14.4v-.72729h7.2Zm0-2.4H14.4v-.72729h7.2Zm0-2.40007H14.4v-.72729h7.2Zm0-2.4H14.4V8.18175h7.2Zm0-2.40007H14.4v-.7272h7.2Z" transform="translate(0 -0.00002)"/></svg>