<?xml version="1.0" encoding="utf-8"?>
<!-- Generator: Adobe Illustrator 22.1.0, SVG Export Plug-In . SVG Version: 6.00 Build 0)  -->
<svg version="1.1" id="_Layer_" xmlns="http://www.w3.org/2000/svg" xmlns:xlink="http://www.w3.org/1999/xlink" x="0px" y="0px"
	 viewBox="0 0 18 18" style="enable-background:new 0 0 18 18;" xml:space="preserve">
<style type="text/css">
	.st0{fill:#5A6872;}
</style>
<title>cloud_18</title>
<g>
	<path class="st0" d="M9,4.3c1.9,0,3.5,1.4,3.9,3.2l0.1,0.7l0.7,0.1C15.1,8.5,16,9.6,16,11c0,1.4-1,2.6-2.4,2.7H5
		c-1.5,0-3-1.7-3-3.4c0-1.6,1.1-3.1,2.8-3.4l0.5-0.1l0.2-0.4C6.1,5.1,7.5,4.3,9,4.3L9,4.3 M9,3.3c-1.9,0-3.6,1-4.4,2.7
		C2.5,6.4,1,8.2,1,10.3c0,2.2,1.8,4.4,4,4.4h8.7c1.9-0.2,3.4-1.8,3.3-3.7c0-1.8-1.3-3.4-3.1-3.7C13.4,5,11.4,3.3,9,3.3
		C9,3.3,9,3.3,9,3.3L9,3.3z"/>
</g>
</svg>
