<svg id="_Layer_" data-name="&lt;Layer&gt;" xmlns="http://www.w3.org/2000/svg" viewBox="0 0 18 18"><defs><style>.cls-1,.cls-2{fill:none;}.cls-1{stroke:#ffd5d4;stroke-miterlimit:10;stroke-width:0.3px;opacity:0.3;}.cls-3{fill:#5a6872;}</style></defs><title>user_registries_18</title><circle id="_Path_" data-name="&lt;Path&gt;" class="cls-1" cx="4.97" cy="13.93" r="2"/><rect id="_Rectangle_" data-name="&lt;Rectangle&gt;" class="cls-2" width="18" height="18"/><g id="_Group_" data-name="&lt;Group&gt;"><path id="_Compound_Path_" data-name="&lt;Compound Path&gt;" class="cls-3" d="M9,11A5,5,0,1,0,4,6,5,5,0,0,0,9,11ZM9,2A4,4,0,1,1,5,6,4,4,0,0,1,9,2Zm6,12v3H3V14a2,2,0,0,1,2-2h8A2,2,0,0,1,15,14ZM11,4l.68.7L8.46,8,6.68,6.17l.68-.7,1.1,1.13Z"/><rect id="_Rectangle_2" data-name="&lt;Rectangle&gt;" class="cls-2" width="18" height="18"/></g></svg>