<svg class="key" width="20px" height="20px" mlns="http://www.w3.org/2000/svg" viewBox="0 0 32 32">
  <g transform="matrix(0,1,1,0,0,0)">
    <path d="M 25,1 12.611,13.388 A 9,9 0 0 0 1,22 9,9 0 0 0 10,31 9,9 0 0 0 18.611,19.388 L 21,17 l 0,-2 2,0 8,-8 0,-6 -6,0 z M 29,6.171 22.172,13 19,13 l 0,3.171 -1.803,1.802 -0.848,0.848 0.348,1.147 C 16.898,20.63 17,21.313 17,22 c 0,3.86 -3.141,7 -7,7 -3.859,0 -7,-3.14 -7,-7 0,-3.86 3.141,-7 7,-7 0.686,0 1.37,0.102 2.031,0.302 L 13.177,15.65 14.025,14.802 25.828,3 29,3 29,6.171 Z"/>
    <circle r="2" cy="24" cx="8" />
    <path d="m 20.646,10.647 6,-6 0.707,0.707 -6,6 z"/>
  </g>
</svg>
